<?xml version="1.0" encoding="UTF-8" standalone="no"?><!-- Generator: Gravit.io --><svg xmlns="http://www.w3.org/2000/svg" xmlns:xlink="http://www.w3.org/1999/xlink" style="isolation:isolate" viewBox="0 0 128 128" width="128pt" height="128pt"><defs><clipPath id="_clipPath_zVlaiMdFQZaTjs5O1RxJnxoSP4sQq0ni"><rect x="0" y="0" width="128" height="128"/></clipPath></defs><g clip-path="url(#_clipPath_zVlaiMdFQZaTjs5O1RxJnxoSP4sQq0ni)"><rect x="0" y="0" width="128" height="128" style="fill:rgb(0,0,0)"/><path d=" M 31.667 30 L 56.667 30 L 56.667 99.5 L 31.667 99.5 L 31.667 30 L 31.667 30 Z  M 0 64 C 0 28.677 28.677 0 64 0 C 99.323 0 128 28.677 128 64 C 128 99.323 99.323 128 64 128 C 28.677 128 0 99.323 0 64 L 0 64 Z  M 72.667 30 L 97.667 30 L 97.667 99.5 L 72.667 99.5 L 72.667 30 Z " fill-rule="evenodd" fill="rgb(235,235,235)"/></g></svg>